Coordinates
version=1
nRows=5
nColumns=40
inDegrees=yes

Units are S.I. units (second, meters, Newtons, ...)
If the header above contains a line with 'inDegrees', this indicates whether rotational values are in degrees (yes) or radians (no).

endheader
time	pelvis_tilt	pelvis_list	pelvis_rotation	pelvis_tx	pelvis_ty	pelvis_tz	hip_flexion_r	hip_adduction_r	hip_rotation_r	knee_angle_r	knee_angle_r_beta	ankle_angle_r	subtalar_angle_r	mtp_angle_r	hip_flexion_l	hip_adduction_l	hip_rotation_l	knee_angle_l	knee_angle_l_beta	ankle_angle_l	subtalar_angle_l	mtp_angle_l	lumbar_extension	lumbar_bending	lumbar_rotation	arm_flex_r	arm_add_r	arm_rot_r	elbow_flex_r	pro_sup_r	wrist_flex_r	wrist_dev_r	arm_flex_l	arm_add_l	arm_rot_l	elbow_flex_l	pro_sup_l	wrist_flex_l	wrist_dev_l
      3.61500000	    -36.13180104	      5.55904042	      3.52316597	     -0.45226809	      0.62117863	     -0.91153566	    103.65410323	    -14.60537568	     13.89469006	    100.94994172	      1.76190886	     35.90767961	      0.00000000	      0.00000000	    102.23658706	    -10.03454644	     -0.75416342	     97.88254371	      1.70837267	     32.06639283	      0.00000000	      0.00000000	    -33.66154717	     -5.35794953	     -2.28576091	    -33.64309523	    -52.85414064	     22.68254908	    105.15402585	     88.11857937	      0.00000000	      0.00000000	      4.96349816	    -67.38519622	     63.64728403	    110.02498175	     88.13723179	      0.00000000	      0.00000000
      3.62000000	    -36.33906649	      5.52669101	      3.67717692	     -0.45262586	      0.62123694	     -0.91194978	    103.85115295	    -14.73770010	     13.93940848	    100.87491841	      1.76059946	     35.88122163	      0.00000000	      0.00000000	    102.42735889	     -9.82428022	     -0.73375537	     97.75721336	      1.70618524	     32.02183351	      0.00000000	      0.00000000	    -33.51840349	     -5.23455088	     -2.65168146	    -33.23253208	    -53.07982736	     23.10939709	    105.20849296	     88.09909744	      0.00000000	      0.00000000	      3.63571965	    -67.35391385	     62.28638062	    110.06495051	     88.14475154	      0.00000000	      0.00000000
      3.62500000	    -36.27660987	      5.69553950	      3.47196317	     -0.45221078	      0.62188603	     -0.91153348	    103.73365588	    -14.48959629	     14.05554886	    100.78263119	      1.75898874	     35.85418454	      0.00000000	      0.00000000	    102.21639160	    -10.04617402	     -0.87116095	     97.72514833	      1.70562560	     32.00072908	      0.00000000	      0.00000000	    -33.65626769	     -5.50103673	     -3.46992973	    -31.08714935	    -53.76729963	     25.32291544	    105.03113256	     88.11551605	      0.00000000	      0.00000000	     -0.13817446	    -67.44922555	     58.45481517	    110.26316483	     88.15658261	      0.00000000	      0.00000000
      3.63000000	    -36.21087740	      5.70180792	      3.44788976	     -0.45181038	      0.62263574	     -0.91153156	    103.55900307	    -14.48584235	     14.03229853	    100.69921262	      1.75753281	     35.90251584	      0.00000000	      0.00000000	    102.04338435	    -10.02929795	     -0.86707738	     97.64409774	      1.70421100	     32.09324896	      0.00000000	      0.00000000	    -33.76759485	     -5.52773289	     -2.28243614	    -33.42684838	    -52.77985072	     22.87370857	    105.04659136	     88.11364560	      0.00000000	      0.00000000	      5.49956356	    -67.32065358	     64.19981652	    109.85788757	     88.11704644	      0.00000000	      0.00000000
      3.63500000	    -36.25372465	      5.65704025	      3.36702216	     -0.45173921	      0.62309679	     -0.91130660	    103.51188673	    -14.38050951	     13.94486977	    100.59854679	      1.75577586	     35.74020925	      0.00000000	      0.00000000	    102.05122567	    -10.08598288	     -0.77476638	     97.58588302	      1.70319496	     31.98716372	      0.00000000	      0.00000000	    -33.80566691	     -5.51534506	     -2.35238735	    -33.27565090	    -52.87819955	     22.93195078	    105.14233462	     88.13922351	      0.00000000	      0.00000000	      4.45344437	    -67.31859891	     63.02919378	    109.90388071	     88.16271710	      0.00000000	      0.00000000
